<mxfile host="65bd71144e">
    <diagram id="b3eGwHV2j6V4eZ0Bb8Ru" name="Page-1">
        <mxGraphModel dx="2260" dy="1584" grid="1" gridSize="10" guides="1" tooltips="1" connect="1" arrows="1" fold="1" page="1" pageScale="1" pageWidth="850" pageHeight="1100" math="0" shadow="0">
            <root>
                <mxCell id="0"/>
                <mxCell id="1" parent="0"/>
                <mxCell id="21" style="edgeStyle=none;html=1;exitX=0;exitY=0.14;exitDx=0;exitDy=0;exitPerimeter=0;entryX=1;entryY=0.14;entryDx=0;entryDy=0;entryPerimeter=0;" parent="1" source="2" target="5" edge="1">
                    <mxGeometry relative="1" as="geometry"/>
                </mxCell>
                <mxCell id="23" style="edgeStyle=none;html=1;exitX=0;exitY=0.29;exitDx=0;exitDy=0;exitPerimeter=0;entryX=1;entryY=0.29;entryDx=0;entryDy=0;entryPerimeter=0;" parent="1" source="2" target="5" edge="1">
                    <mxGeometry relative="1" as="geometry"/>
                </mxCell>
                <mxCell id="53" style="edgeStyle=none;html=1;exitX=0.63;exitY=1;exitDx=0;exitDy=0;exitPerimeter=0;entryX=0.73;entryY=1;entryDx=0;entryDy=0;entryPerimeter=0;" parent="1" source="2" target="28" edge="1">
                    <mxGeometry relative="1" as="geometry">
                        <Array as="points">
                            <mxPoint x="430" y="828"/>
                            <mxPoint x="138" y="828"/>
                        </Array>
                    </mxGeometry>
                </mxCell>
                <mxCell id="54" style="edgeStyle=none;html=1;exitX=0.69;exitY=1;exitDx=0;exitDy=0;exitPerimeter=0;entryX=0.58;entryY=1;entryDx=0;entryDy=0;entryPerimeter=0;" parent="1" source="2" target="28" edge="1">
                    <mxGeometry relative="1" as="geometry">
                        <Array as="points">
                            <mxPoint x="440" y="848"/>
                            <mxPoint x="120" y="848"/>
                        </Array>
                    </mxGeometry>
                </mxCell>
                <mxCell id="55" style="edgeStyle=none;html=1;exitX=0.75;exitY=1;exitDx=0;exitDy=0;exitPerimeter=0;entryX=0.43;entryY=1;entryDx=0;entryDy=0;entryPerimeter=0;" parent="1" source="2" target="28" edge="1">
                    <mxGeometry relative="1" as="geometry">
                        <Array as="points">
                            <mxPoint x="450" y="868"/>
                            <mxPoint x="102" y="868"/>
                        </Array>
                    </mxGeometry>
                </mxCell>
                <mxCell id="57" style="edgeStyle=none;html=1;exitX=0.81;exitY=1;exitDx=0;exitDy=0;exitPerimeter=0;entryX=0.28;entryY=1;entryDx=0;entryDy=0;entryPerimeter=0;" parent="1" source="2" target="28" edge="1">
                    <mxGeometry relative="1" as="geometry">
                        <Array as="points">
                            <mxPoint x="460" y="888"/>
                            <mxPoint x="84" y="888"/>
                        </Array>
                    </mxGeometry>
                </mxCell>
                <mxCell id="59" style="edgeStyle=none;html=1;exitX=0.88;exitY=1;exitDx=0;exitDy=0;exitPerimeter=0;entryX=0.13;entryY=1;entryDx=0;entryDy=0;entryPerimeter=0;" parent="1" source="2" target="28" edge="1">
                    <mxGeometry relative="1" as="geometry">
                        <Array as="points">
                            <mxPoint x="470" y="908"/>
                            <mxPoint x="66" y="908"/>
                        </Array>
                    </mxGeometry>
                </mxCell>
                <mxCell id="67" style="edgeStyle=none;html=1;exitX=0.56;exitY=1;exitDx=0;exitDy=0;exitPerimeter=0;entryX=1;entryY=0.75;entryDx=0;entryDy=0;entryPerimeter=0;" parent="1" source="2" target="28" edge="1">
                    <mxGeometry relative="1" as="geometry">
                        <Array as="points">
                            <mxPoint x="420" y="758"/>
                        </Array>
                    </mxGeometry>
                </mxCell>
                <mxCell id="90" style="edgeStyle=none;html=1;exitX=0.88;exitY=0;exitDx=0;exitDy=0;exitPerimeter=0;entryX=0;entryY=0.88;entryDx=0;entryDy=0;entryPerimeter=0;" parent="1" source="2" target="60" edge="1">
                    <mxGeometry relative="1" as="geometry">
                        <Array as="points">
                            <mxPoint x="470" y="294"/>
                        </Array>
                    </mxGeometry>
                </mxCell>
                <mxCell id="91" style="edgeStyle=none;html=1;exitX=0.75;exitY=0;exitDx=0;exitDy=0;exitPerimeter=0;entryX=0;entryY=0.75;entryDx=0;entryDy=0;entryPerimeter=0;" parent="1" source="2" target="60" edge="1">
                    <mxGeometry relative="1" as="geometry">
                        <Array as="points">
                            <mxPoint x="450" y="278"/>
                        </Array>
                    </mxGeometry>
                </mxCell>
                <mxCell id="92" style="edgeStyle=none;html=1;exitX=0.63;exitY=0;exitDx=0;exitDy=0;exitPerimeter=0;entryX=0;entryY=0.63;entryDx=0;entryDy=0;entryPerimeter=0;" parent="1" source="2" target="60" edge="1">
                    <mxGeometry relative="1" as="geometry">
                        <Array as="points">
                            <mxPoint x="431" y="264"/>
                        </Array>
                    </mxGeometry>
                </mxCell>
                <mxCell id="93" style="edgeStyle=none;html=1;exitX=0.5;exitY=0;exitDx=0;exitDy=0;exitPerimeter=0;entryX=0;entryY=0.5;entryDx=0;entryDy=0;entryPerimeter=0;" parent="1" source="2" target="60" edge="1">
                    <mxGeometry relative="1" as="geometry">
                        <Array as="points">
                            <mxPoint x="410" y="248"/>
                        </Array>
                    </mxGeometry>
                </mxCell>
                <mxCell id="94" style="edgeStyle=none;html=1;exitX=0.38;exitY=0;exitDx=0;exitDy=0;exitPerimeter=0;entryX=0;entryY=0.38;entryDx=0;entryDy=0;entryPerimeter=0;" parent="1" source="2" target="60" edge="1">
                    <mxGeometry relative="1" as="geometry">
                        <Array as="points">
                            <mxPoint x="390" y="234"/>
                        </Array>
                    </mxGeometry>
                </mxCell>
                <mxCell id="95" style="edgeStyle=none;html=1;exitX=0.25;exitY=0;exitDx=0;exitDy=0;exitPerimeter=0;entryX=0;entryY=0.25;entryDx=0;entryDy=0;entryPerimeter=0;" parent="1" source="2" target="60" edge="1">
                    <mxGeometry relative="1" as="geometry">
                        <Array as="points">
                            <mxPoint x="370" y="218"/>
                        </Array>
                    </mxGeometry>
                </mxCell>
                <mxCell id="96" style="edgeStyle=none;html=1;exitX=0.13;exitY=0;exitDx=0;exitDy=0;exitPerimeter=0;entryX=0;entryY=0.13;entryDx=0;entryDy=0;entryPerimeter=0;" parent="1" source="2" target="60" edge="1">
                    <mxGeometry relative="1" as="geometry">
                        <Array as="points">
                            <mxPoint x="350" y="204"/>
                        </Array>
                    </mxGeometry>
                </mxCell>
                <mxCell id="2" value="0" style="swimlane;rounded=1;points=[[0,0.14,0,0,0],[0,0.25,0,0,0],[0,0.29,0,0,0],[0,0.43,0,0,0],[0,0.5,0,0,0],[0,0.57,0,0,0],[0,0.71,0,0,0],[0,0.75,0,0,0],[0,0.86,0,0,0],[0,1,0,0,0],[0.06,1,0,0,0],[0.13,0,0,0,0],[0.13,1,0,0,0],[0.19,1,0,0,0],[0.25,0,0,0,0],[0.25,1,0,0,0],[0.31,1,0,0,0],[0.38,0,0,0,0],[0.38,1,0,0,0],[0.44,1,0,0,0],[0.5,0,0,0,0],[0.5,1,0,0,0],[0.56,1,0,0,0],[0.63,0,0,0,0],[0.63,1,0,0,0],[0.69,1,0,0,0],[0.75,0,0,0,0],[0.75,1,0,0,0],[0.81,1,0,0,0],[0.88,0,0,0,0],[0.88,1,0,0,0],[0.94,1,0,0,0],[1,0.14,0,0,0],[1,0.29,0,0,0],[1,0.43,0,0,0],[1,0.57,0,0,0],[1,0.71,0,0,0],[1,0.86,0,0,0]];" parent="1" vertex="1">
                    <mxGeometry x="330" y="348" width="160" height="120" as="geometry"/>
                </mxCell>
                <mxCell id="3" value="ระบบจัดการหอพัก&lt;br&gt;เขาใหญ่โมเดิร์นเพลส" style="text;html=1;align=center;verticalAlign=middle;resizable=0;points=[];autosize=1;strokeColor=none;fillColor=none;" parent="2" vertex="1">
                    <mxGeometry x="15" y="60" width="130" height="40" as="geometry"/>
                </mxCell>
                <mxCell id="26" style="edgeStyle=none;html=1;exitX=1;exitY=0.71;exitDx=0;exitDy=0;exitPerimeter=0;entryX=0;entryY=0.71;entryDx=0;entryDy=0;entryPerimeter=0;" parent="1" source="5" target="2" edge="1">
                    <mxGeometry relative="1" as="geometry"/>
                </mxCell>
                <mxCell id="27" style="edgeStyle=none;html=1;exitX=1;exitY=0.86;exitDx=0;exitDy=0;exitPerimeter=0;entryX=0;entryY=0.86;entryDx=0;entryDy=0;entryPerimeter=0;" parent="1" source="5" target="2" edge="1">
                    <mxGeometry relative="1" as="geometry"/>
                </mxCell>
                <mxCell id="5" value="ลูกค้าทั่วไป" style="rounded=0;whiteSpace=wrap;html=1;points=[[0,0,0,0,0],[0,0.25,0,0,0],[0,0.5,0,0,0],[0,0.75,0,0,0],[0,1,0,0,0],[0.25,0,0,0,0],[0.25,1,0,0,0],[0.5,0,0,0,0],[0.5,1,0,0,0],[0.75,0,0,0,0],[0.75,1,0,0,0],[1,0,0,0,0],[1,0.14,0,0,0],[1,0.25,0,0,0],[1,0.29,0,0,0],[1,0.43,0,0,0],[1,0.5,0,0,0],[1,0.57,0,0,0],[1,0.71,0,0,0],[1,0.75,0,0,0],[1,0.86,0,0,0],[1,1,0,0,0]];" parent="1" vertex="1">
                    <mxGeometry x="50" y="348" width="120" height="120" as="geometry"/>
                </mxCell>
                <mxCell id="6" value="ข้อมูลลูกค้า" style="text;html=1;align=center;verticalAlign=middle;resizable=0;points=[];autosize=1;strokeColor=none;fillColor=none;" parent="1" vertex="1">
                    <mxGeometry x="210" y="408" width="80" height="30" as="geometry"/>
                </mxCell>
                <mxCell id="7" value="Username, Password" style="text;html=1;align=center;verticalAlign=middle;resizable=0;points=[];autosize=1;strokeColor=none;fillColor=none;" parent="1" vertex="1">
                    <mxGeometry x="180" y="428" width="140" height="30" as="geometry"/>
                </mxCell>
                <mxCell id="8" value="ผลการสมัครสมาชิก" style="text;html=1;align=center;verticalAlign=middle;resizable=0;points=[];autosize=1;strokeColor=none;fillColor=none;" parent="1" vertex="1">
                    <mxGeometry x="190" y="338" width="120" height="30" as="geometry"/>
                </mxCell>
                <mxCell id="9" value="ออกใบเสร็จ" style="text;html=1;align=center;verticalAlign=middle;resizable=0;points=[];autosize=1;strokeColor=none;fillColor=none;" parent="1" vertex="1">
                    <mxGeometry x="210" y="358" width="80" height="30" as="geometry"/>
                </mxCell>
                <mxCell id="35" style="edgeStyle=none;html=1;exitX=0.88;exitY=0;exitDx=0;exitDy=0;exitPerimeter=0;entryX=0.44;entryY=1;entryDx=0;entryDy=0;entryPerimeter=0;" parent="1" source="28" target="2" edge="1">
                    <mxGeometry relative="1" as="geometry">
                        <mxPoint x="390" y="468" as="targetPoint"/>
                        <Array as="points">
                            <mxPoint x="156" y="648"/>
                            <mxPoint x="400" y="648"/>
                        </Array>
                    </mxGeometry>
                </mxCell>
                <mxCell id="37" style="edgeStyle=none;html=1;exitX=0.75;exitY=0;exitDx=0;exitDy=0;exitPerimeter=0;entryX=0.38;entryY=1;entryDx=0;entryDy=0;entryPerimeter=0;" parent="1" source="28" target="2" edge="1">
                    <mxGeometry relative="1" as="geometry">
                        <Array as="points">
                            <mxPoint x="140" y="628"/>
                            <mxPoint x="390" y="628"/>
                        </Array>
                    </mxGeometry>
                </mxCell>
                <mxCell id="38" style="edgeStyle=none;html=1;exitX=0.63;exitY=0;exitDx=0;exitDy=0;exitPerimeter=0;entryX=0.31;entryY=1;entryDx=0;entryDy=0;entryPerimeter=0;" parent="1" source="28" target="2" edge="1">
                    <mxGeometry relative="1" as="geometry">
                        <Array as="points">
                            <mxPoint x="126" y="608"/>
                            <mxPoint x="380" y="608"/>
                        </Array>
                    </mxGeometry>
                </mxCell>
                <mxCell id="39" style="edgeStyle=none;html=1;exitX=0.5;exitY=0;exitDx=0;exitDy=0;exitPerimeter=0;entryX=0.25;entryY=1;entryDx=0;entryDy=0;entryPerimeter=0;" parent="1" source="28" target="2" edge="1">
                    <mxGeometry relative="1" as="geometry">
                        <Array as="points">
                            <mxPoint x="110" y="588"/>
                            <mxPoint x="370" y="588"/>
                        </Array>
                    </mxGeometry>
                </mxCell>
                <mxCell id="41" style="edgeStyle=none;html=1;exitX=0.25;exitY=0;exitDx=0;exitDy=0;exitPerimeter=0;entryX=0.13;entryY=1;entryDx=0;entryDy=0;entryPerimeter=0;" parent="1" source="28" target="2" edge="1">
                    <mxGeometry relative="1" as="geometry">
                        <Array as="points">
                            <mxPoint x="80" y="548"/>
                            <mxPoint x="351" y="548"/>
                        </Array>
                    </mxGeometry>
                </mxCell>
                <mxCell id="28" value="ผู้เช่า / สมาชิก" style="rounded=0;whiteSpace=wrap;html=1;points=[[0,0,0,0,0],[0,0.25,0,0,0],[0,0.5,0,0,0],[0,0.75,0,0,0],[0,1,0,0,0],[0.13,0,0,0,0],[0.13,1,0,0,0],[0.25,0,0,0,0],[0.28,1,0,0,0],[0.38,0,0,0,0],[0.43,1,0,0,0],[0.5,0,0,0,0],[0.58,1,0,0,0],[0.63,0,0,0,0],[0.73,1,0,0,0],[0.75,0,0,0,0],[0.87,1,0,0,0],[0.88,0,0,0,0],[1,0,0,0,0],[1,0.25,0,0,0],[1,0.5,0,0,0],[1,0.75,0,0,0],[1,1,0,0,0]];" parent="1" vertex="1">
                    <mxGeometry x="50" y="668" width="120" height="120" as="geometry"/>
                </mxCell>
                <mxCell id="31" value="ข้อมูลการแจ้งคืนห้องพัก" style="text;html=1;align=center;verticalAlign=middle;resizable=0;points=[];autosize=1;strokeColor=none;fillColor=none;" parent="1" vertex="1">
                    <mxGeometry x="200" y="628" width="140" height="30" as="geometry"/>
                </mxCell>
                <mxCell id="32" value="ข้อมูลการคืนห้องพัก" style="text;html=1;align=center;verticalAlign=middle;resizable=0;points=[];autosize=1;strokeColor=none;fillColor=none;" parent="1" vertex="1">
                    <mxGeometry x="210" y="608" width="120" height="30" as="geometry"/>
                </mxCell>
                <mxCell id="33" value="ชำระบิลค่าเช่า" style="text;html=1;align=center;verticalAlign=middle;resizable=0;points=[];autosize=1;strokeColor=none;fillColor=none;" parent="1" vertex="1">
                    <mxGeometry x="225" y="568" width="90" height="30" as="geometry"/>
                </mxCell>
                <mxCell id="34" value="จอง , ทําสัญญาเช่า&lt;br/&gt;" style="text;html=1;align=center;verticalAlign=middle;resizable=0;points=[];autosize=1;strokeColor=none;fillColor=none;" parent="1" vertex="1">
                    <mxGeometry x="210" y="588" width="120" height="30" as="geometry"/>
                </mxCell>
                <mxCell id="43" value="ข้อมูลการแจ้งซ่อม" style="text;html=1;align=center;verticalAlign=middle;resizable=0;points=[];autosize=1;strokeColor=none;fillColor=none;" parent="1" vertex="1">
                    <mxGeometry x="115" y="523" width="110" height="30" as="geometry"/>
                </mxCell>
                <mxCell id="45" value="เลขที่การจอง สัญญาเช่า&lt;br/&gt;" style="text;html=1;align=center;verticalAlign=middle;resizable=0;points=[];autosize=1;strokeColor=none;fillColor=none;" parent="1" vertex="1">
                    <mxGeometry x="205" y="868" width="140" height="30" as="geometry"/>
                </mxCell>
                <mxCell id="46" value="ใบเสร็จ" style="text;html=1;align=center;verticalAlign=middle;resizable=0;points=[];autosize=1;strokeColor=none;fillColor=none;" parent="1" vertex="1">
                    <mxGeometry x="240" y="808" width="60" height="30" as="geometry"/>
                </mxCell>
                <mxCell id="47" value="สถานะการแจ้งซ่อม" style="text;html=1;align=center;verticalAlign=middle;resizable=0;points=[];autosize=1;strokeColor=none;fillColor=none;" parent="1" vertex="1">
                    <mxGeometry x="225" y="738" width="120" height="30" as="geometry"/>
                </mxCell>
                <mxCell id="48" value="เเจ้งบิลค่าเช่า" style="text;html=1;align=center;verticalAlign=middle;resizable=0;points=[];autosize=1;strokeColor=none;fillColor=none;" parent="1" vertex="1">
                    <mxGeometry x="225" y="828" width="90" height="30" as="geometry"/>
                </mxCell>
                <mxCell id="50" value="สถานะการแจ้งคืน" style="text;html=1;align=center;verticalAlign=middle;resizable=0;points=[];autosize=1;strokeColor=none;fillColor=none;" parent="1" vertex="1">
                    <mxGeometry x="215" y="848" width="110" height="30" as="geometry"/>
                </mxCell>
                <mxCell id="51" value="User name และ Password&lt;br/&gt;" style="text;html=1;align=center;verticalAlign=middle;resizable=0;points=[];autosize=1;strokeColor=none;fillColor=none;" parent="1" vertex="1">
                    <mxGeometry x="195" y="888" width="160" height="30" as="geometry"/>
                </mxCell>
                <mxCell id="75" style="edgeStyle=none;html=1;exitX=0.14;exitY=1;exitDx=0;exitDy=0;exitPerimeter=0;entryX=1;entryY=0.14;entryDx=0;entryDy=0;entryPerimeter=0;" parent="1" source="60" target="2" edge="1">
                    <mxGeometry relative="1" as="geometry">
                        <Array as="points">
                            <mxPoint x="707" y="365"/>
                        </Array>
                    </mxGeometry>
                </mxCell>
                <mxCell id="77" style="edgeStyle=none;html=1;exitX=0.29;exitY=1;exitDx=0;exitDy=0;exitPerimeter=0;entryX=1;entryY=0.29;entryDx=0;entryDy=0;entryPerimeter=0;" parent="1" source="60" target="2" edge="1">
                    <mxGeometry relative="1" as="geometry">
                        <Array as="points">
                            <mxPoint x="725" y="383"/>
                        </Array>
                    </mxGeometry>
                </mxCell>
                <mxCell id="78" style="edgeStyle=none;html=1;exitX=0.43;exitY=1;exitDx=0;exitDy=0;exitPerimeter=0;entryX=1;entryY=0.43;entryDx=0;entryDy=0;entryPerimeter=0;" parent="1" source="60" target="2" edge="1">
                    <mxGeometry relative="1" as="geometry">
                        <Array as="points">
                            <mxPoint x="740" y="398"/>
                        </Array>
                    </mxGeometry>
                </mxCell>
                <mxCell id="79" style="edgeStyle=none;html=1;exitX=0.57;exitY=1;exitDx=0;exitDy=0;exitPerimeter=0;entryX=1;entryY=0.57;entryDx=0;entryDy=0;entryPerimeter=0;" parent="1" source="60" target="2" edge="1">
                    <mxGeometry relative="1" as="geometry">
                        <Array as="points">
                            <mxPoint x="760" y="418"/>
                        </Array>
                    </mxGeometry>
                </mxCell>
                <mxCell id="80" style="edgeStyle=none;html=1;exitX=0.71;exitY=1;exitDx=0;exitDy=0;exitPerimeter=0;entryX=1;entryY=0.71;entryDx=0;entryDy=0;entryPerimeter=0;" parent="1" source="60" target="2" edge="1">
                    <mxGeometry relative="1" as="geometry">
                        <Array as="points">
                            <mxPoint x="775" y="433"/>
                        </Array>
                    </mxGeometry>
                </mxCell>
                <mxCell id="81" style="edgeStyle=none;html=1;exitX=0.86;exitY=1;exitDx=0;exitDy=0;exitPerimeter=0;entryX=1;entryY=0.86;entryDx=0;entryDy=0;entryPerimeter=0;" parent="1" source="60" target="2" edge="1">
                    <mxGeometry relative="1" as="geometry">
                        <Array as="points">
                            <mxPoint x="793" y="451"/>
                        </Array>
                    </mxGeometry>
                </mxCell>
                <mxCell id="60" value="ผู้ดูเเลระบบ / พนักงาน" style="rounded=0;whiteSpace=wrap;html=1;points=[[0,0.13,0,0,0],[0,0.25,0,0,0],[0,0.38,0,0,0],[0,0.5,0,0,0],[0,0.63,0,0,0],[0,0.75,0,0,0],[0,0.88,0,0,0],[0.14,1,0,0,0],[0.29,1,0,0,0],[0.43,1,0,0,0],[0.57,1,0,0,0],[0.71,1,0,0,0],[0.86,1,0,0,0]];" parent="1" vertex="1">
                    <mxGeometry x="690" y="188" width="120" height="120" as="geometry"/>
                </mxCell>
                <mxCell id="61" value="จัดการข้อมูลแจ้งคืน" style="text;html=1;align=center;verticalAlign=middle;resizable=0;points=[];autosize=1;strokeColor=none;fillColor=none;" parent="1" vertex="1">
                    <mxGeometry x="550" y="362" width="120" height="30" as="geometry"/>
                </mxCell>
                <mxCell id="62" value="จัดการข้อมูลการแจ้งซ่อม" style="text;html=1;align=center;verticalAlign=middle;resizable=0;points=[];autosize=1;strokeColor=none;fillColor=none;" parent="1" vertex="1">
                    <mxGeometry x="535" y="431" width="150" height="30" as="geometry"/>
                </mxCell>
                <mxCell id="63" value="จัดการข้อมูลการเช่า" style="text;html=1;align=center;verticalAlign=middle;resizable=0;points=[];autosize=1;strokeColor=none;fillColor=none;" parent="1" vertex="1">
                    <mxGeometry x="550" y="344" width="120" height="30" as="geometry"/>
                </mxCell>
                <mxCell id="64" value="จัดการข้อมูลการคืนห้องพักและคิดค่าปรับ" style="text;html=1;align=center;verticalAlign=middle;resizable=0;points=[];autosize=1;strokeColor=none;fillColor=none;" parent="1" vertex="1">
                    <mxGeometry x="500" y="412" width="220" height="30" as="geometry"/>
                </mxCell>
                <mxCell id="65" value="จัดการ User และ Password สมาชิก&lt;br/&gt;" style="text;html=1;align=center;verticalAlign=middle;resizable=0;points=[];autosize=1;strokeColor=none;fillColor=none;" parent="1" vertex="1">
                    <mxGeometry x="510" y="396" width="200" height="30" as="geometry"/>
                </mxCell>
                <mxCell id="66" value="จัดการข้อมูลการรับชําระเงิน" style="text;html=1;align=center;verticalAlign=middle;resizable=0;points=[];autosize=1;strokeColor=none;fillColor=none;" parent="1" vertex="1">
                    <mxGeometry x="530" y="378" width="160" height="30" as="geometry"/>
                </mxCell>
                <mxCell id="82" value="รายงานการคืนห้องพักและคิดค่าปรับ" style="text;html=1;align=center;verticalAlign=middle;resizable=0;points=[];autosize=1;strokeColor=none;fillColor=none;" parent="1" vertex="1">
                    <mxGeometry x="472" y="273" width="200" height="30" as="geometry"/>
                </mxCell>
                <mxCell id="83" value="รายงานข้อมูลการจอง" style="text;html=1;align=center;verticalAlign=middle;resizable=0;points=[];autosize=1;strokeColor=none;fillColor=none;" parent="1" vertex="1">
                    <mxGeometry x="542" y="183" width="130" height="30" as="geometry"/>
                </mxCell>
                <mxCell id="84" value="รายงานข้อมูลการเช่า" style="text;html=1;align=center;verticalAlign=middle;resizable=0;points=[];autosize=1;strokeColor=none;fillColor=none;" parent="1" vertex="1">
                    <mxGeometry x="542" y="197" width="130" height="30" as="geometry"/>
                </mxCell>
                <mxCell id="86" value="รายงานข้อมูลการแจ้งซ่อม" style="text;html=1;align=center;verticalAlign=middle;resizable=0;points=[];autosize=1;strokeColor=none;fillColor=none;" parent="1" vertex="1">
                    <mxGeometry x="522" y="227" width="150" height="30" as="geometry"/>
                </mxCell>
                <mxCell id="87" value="รายงานการรับชําระเงิน" style="text;html=1;align=center;verticalAlign=middle;resizable=0;points=[];autosize=1;strokeColor=none;fillColor=none;" parent="1" vertex="1">
                    <mxGeometry x="542" y="213" width="130" height="30" as="geometry"/>
                </mxCell>
                <mxCell id="88" value="รายงานการแจ้งย้าย ,แจ้งคืน&lt;br/&gt;" style="text;html=1;align=center;verticalAlign=middle;resizable=0;points=[];autosize=1;strokeColor=none;fillColor=none;" parent="1" vertex="1">
                    <mxGeometry x="512" y="243" width="160" height="30" as="geometry"/>
                </mxCell>
                <mxCell id="89" value="รายงานข้อมูล User และ Password &lt;br/&gt;" style="text;html=1;align=center;verticalAlign=middle;resizable=0;points=[];autosize=1;strokeColor=none;fillColor=none;" parent="1" vertex="1">
                    <mxGeometry x="472" y="257" width="200" height="30" as="geometry"/>
                </mxCell>
            </root>
        </mxGraphModel>
    </diagram>
</mxfile>